<?xml version="1.0" encoding="utf-8"?>
<!-- Generator: Adobe Illustrator 26.0.1, SVG Export Plug-In . SVG Version: 6.00 Build 0)  -->
<svg version="1.1" id="Layer_1" xmlns="http://www.w3.org/2000/svg" xmlns:xlink="http://www.w3.org/1999/xlink" x="0px" y="0px"
	 viewBox="0 0 282 50" style="enable-background:new 0 0 282 50;" xml:space="preserve">
<style type="text/css">
	.st0{fill:#757575;}
</style>
<path d="M114.2,19.9h23.5V0h6.1v49.3h-6.1V25.6h-23.5v23.7h-6.1V0h6.1V19.9z"/>
<path d="M158.9,0v43.7h15v5.6h-21.1V0H158.9z"/>
<path class="st0" d="M132.7,45.3c-2,1.4-4.7,2.9-6.8,3.6c-2.1,0.7-4.1,1.1-6.1,1.1c-1.6,0-3.1-0.2-4.5-0.7c-1.4-0.5-2.7-1.2-3.8-2.1
	c-1.1-1-1.9-2.2-2.6-3.7s-1-3.3-1-5.3c0-2.4,0.4-4.7,1.1-6.9c0.7-2.2,1.6-4.2,2.8-6c1.2-1.8,2.5-3.5,4.1-5c1.5-1.5,3.1-2.7,4.8-3.8
	c1.7-1,3.4-1.8,5.1-2.4c1.7-0.5,3.3-0.8,4.8-0.8c1.5,0,2.8,0.2,3.8,0.6c1,0.4,1.7,0.9,2.3,1.5c0.6,0.6,0.9,1.2,1.1,1.9
	c0.2,0.7,0.3,1.2,0.3,1.7c0,0.8-0.1,1.5-0.3,2.4c-0.2,0.8-0.5,1.6-0.9,2.3c-0.4,0.7-0.9,1.3-1.5,1.8c-0.6,0.5-1.2,0.7-1.9,0.7
	c-0.7,0-1.3-0.2-1.8-0.7c-0.5-0.5-0.8-1-0.8-1.7c0,0,0-0.2,0.1-0.6c0-0.3,0.2-0.7,0.4-1.1c0.3-0.4,0.6-0.7,1.1-1.1
	c0.5-0.3,1.2-0.5,2.2-0.5h0.6c0.2-0.5,0.3-1,0.3-1.6c0-1-0.4-1.8-1.2-2.4c-0.8-0.6-2.1-0.9-3.8-0.9c-1.4,0-2.8,0.3-4.2,0.9
	c-1.4,0.6-2.8,1.4-4.1,2.5c-1.3,1.1-2.5,2.3-3.7,3.8c-1.1,1.5-2.1,3.1-3,4.8c-0.8,1.7-1.5,3.5-2,5.5c-0.5,1.9-0.7,3.9-0.7,5.8
	c0,1.6,0.2,2.9,0.5,4c0.3,1.1,0.8,2,1.5,2.7c0.6,0.7,1.4,1.2,2.3,1.5c0.9,0.3,1.9,0.4,3,0.4c2.2,0,4.3-0.5,6.3-1.5
	c2-1,4-2.2,5.8-3.8"/>
<path class="st0" d="M168.1,7.4c-0.2,0.3-0.6,0.9-1.2,1.7c-0.5,0.8-1.2,1.7-1.9,2.8s-1.5,2.3-2.3,3.6c-0.8,1.3-1.6,2.7-2.5,4.1
	c-0.8,1.4-1.6,2.8-2.4,4.3c-0.8,1.4-1.5,2.8-2.1,4.1c-0.9,2-1.7,3.9-2.3,5.5c-0.6,1.6-1.1,3-1.4,4.3c-0.4,1.3-0.6,2.3-0.7,3.3
	c-0.1,0.9-0.2,1.7-0.2,2.4c0,1.2,0.2,2.1,0.6,2.5c0.4,0.5,0.9,0.7,1.5,0.7c0.7,0,1.3-0.2,1.9-0.5c0.6-0.3,1.2-0.8,1.8-1.3
	c0.6-0.5,1.1-1.1,1.6-1.8c0.5-0.7,1-1.4,1.4-2c0.4-0.7,0.8-1.3,1.2-1.9c0.4-0.6,0.7-1.1,1-1.6l1.2,0.9c-0.2,0.4-0.5,0.9-0.9,1.5
	c-0.4,0.6-0.8,1.3-1.2,2.1c-0.4,0.7-1,1.5-1.5,2.3c-0.6,0.8-1.2,1.4-1.9,2.1c-0.7,0.6-1.5,1.1-2.3,1.5c-0.8,0.4-1.8,0.6-2.7,0.6
	c-0.5,0-1-0.1-1.5-0.2c-0.5-0.1-1-0.4-1.5-0.7c-0.4-0.3-0.8-0.8-1.2-1.3c-0.3-0.6-0.6-1.3-0.7-2.2c-1.6,1.7-3.2,3-4.7,3.9
	c-1.5,0.9-2.9,1.3-4.3,1.3c-0.7,0-1.4-0.1-2.3-0.4c-0.8-0.2-1.6-0.6-2.3-1.2c-0.7-0.6-1.3-1.3-1.8-2.3c-0.5-0.9-0.7-2.1-0.7-3.5
	c0-1.6,0.2-3.1,0.7-4.5c0.5-1.4,1.2-2.8,2-4c0.8-1.2,1.8-2.3,2.9-3.3c1.1-1,2.2-1.8,3.4-2.5c1.2-0.7,2.3-1.2,3.5-1.6
	c1.2-0.4,2.3-0.6,3.3-0.6c1.4,0,2.5,0.2,3.3,0.5c0.8,0.3,1.4,0.7,1.8,1c0.3-0.6,0.7-1.4,1.2-2.3c0.5-0.9,1.1-2,1.8-3.1
	c0.7-1.1,1.4-2.4,2.3-3.6c0.8-1.3,1.7-2.6,2.7-3.9c0.9-1.3,1.9-2.6,3-3.9c1-1.3,2.1-2.5,3.1-3.6L168.1,7.4z M147.9,41.6
	c0.1-1.6,0.5-3.4,1.1-5.6c0.6-2.1,1.6-4.6,2.9-7.4c-0.3-0.4-0.7-0.8-1.3-1c-0.5-0.2-1.2-0.4-1.8-0.4c-1,0-2.1,0.2-3.2,0.6
	c-1.1,0.4-2.1,1-3.1,1.7c-1,0.7-1.9,1.6-2.8,2.6c-0.9,1-1.6,2-2.3,3.2c-0.6,1.1-1.2,2.3-1.5,3.5c-0.4,1.2-0.6,2.4-0.6,3.6
	c0,1.6,0.3,2.8,1,3.7c0.7,0.9,1.6,1.3,2.7,1.3c0.5,0,1.1-0.1,1.8-0.3c0.6-0.2,1.3-0.6,2.1-1c0.8-0.5,1.5-1.1,2.4-1.9
	C146.1,43.6,147,42.7,147.9,41.6z"/>
<path d="M143.9,29.1v20.6h-6.1V34.8"/>
<path d="M158.9,22.2v21.5h15v5.6h-21.1v-13L158.9,22.2z"/>
<path d="M114.2,25.6L114.2,25.6h-6.1v-5.9h6.1v0l14.8,0.1v5.7"/>
</svg>
